HIERARCHY
ROOT Hips
{
  OFFSET -0.165833 95.6504 -0.872502
  CHANNELS 6 Xposition Yposition Zposition Zrotation Xrotation Yrotation
  JOINT LeftUpLeg
  {
    OFFSET 8.64259 1.95398 -2.38835
    CHANNELS 3 Zrotation Xrotation Yrotation
    JOINT LeftLeg
    {
      OFFSET 43.7702 0 0
      CHANNELS 3 Zrotation Xrotation Yrotation
      JOINT LeftFoot
      {
        OFFSET 40.6238 0 0
        CHANNELS 3 Zrotation Xrotation Yrotation
        JOINT LeftToeBase
        {
          OFFSET 12.7242 0 0
          CHANNELS 3 Zrotation Xrotation Yrotation
          End Site
          {
            OFFSET 0 0 0
          }
        }
      }
    }
  }
  JOINT RightUpLeg
  {
    OFFSET -8.2249 1.95398 -2.59336
    CHANNELS 3 Zrotation Xrotation Yrotation
    JOINT RightLeg
    {
      OFFSET 43.5653 0 0
      CHANNELS 3 Zrotation Xrotation Yrotation
      JOINT RightFoot
      {
        OFFSET 40.6238 0 0
        CHANNELS 3 Zrotation Xrotation Yrotation
        JOINT RightToeBase
        {
          OFFSET 12.7242 0 0
          CHANNELS 3 Zrotation Xrotation Yrotation
          End Site
          {
            OFFSET 0 0 0
          }
        }
      }
    }
  }
  JOINT Spine
  {
    OFFSET 0.165834 0.87714 6.61349
    CHANNELS 3 Zrotation Xrotation Yrotation
    JOINT Spine1
    {
      OFFSET 7.38963 1.71661e-005 0
      CHANNELS 3 Zrotation Xrotation Yrotation
      JOINT Spine2
      {
        OFFSET 11.9445 1.14441e-005 0
        CHANNELS 3 Zrotation Xrotation Yrotation
        JOINT Spine3
        {
          OFFSET 14.7254 4.19617e-005 0
          CHANNELS 3 Zrotation Xrotation Yrotation
          JOINT Spine4
          {
            OFFSET 10.9679 0 0
            CHANNELS 3 Zrotation Xrotation Yrotation
            JOINT RightShoulder
            {
              OFFSET 2.46616 -1.6653 3.69651
              CHANNELS 3 Zrotation Xrotation Yrotation
              JOINT RightArm
              {
                OFFSET 13.0012 0 0
                CHANNELS 3 Zrotation Xrotation Yrotation
                JOINT RightForeArm
                {
                  OFFSET 28.7848 1.52588e-005 0
                  CHANNELS 3 Zrotation Xrotation Yrotation
                  JOINT RightHand
                  {
                    OFFSET 26.5688 1.52588e-005 0
                    CHANNELS 3 Zrotation Xrotation Yrotation
                    End Site
                    {
                      OFFSET 0 0 0
                    }
                  }
                }
              }
            }
            JOINT LeftShoulder
            {
              OFFSET 2.38034 -1.29275 -3.7523
              CHANNELS 3 Zrotation Xrotation Yrotation
              JOINT LeftArm
              {
                OFFSET 16.3182 6.10352e-005 0
                CHANNELS 3 Zrotation Xrotation Yrotation
                JOINT LeftForeArm
                {
                  OFFSET 27.0901 0 0
                  CHANNELS 3 Zrotation Xrotation Yrotation
                  JOINT LeftHand
                  {
                    OFFSET 24.5451 1.52588e-005 0
                    CHANNELS 3 Zrotation Xrotation Yrotation
                    End Site
                    {
                      OFFSET 0 0 0
                    }
                  }
                }
              }
            }
            JOINT Neck
            {
              OFFSET 5.0226 -0.0266342 0
              CHANNELS 3 Zrotation Xrotation Yrotation
              JOINT Head
              {
                OFFSET 6.69364 2.86102e-005 0
                CHANNELS 3 Zrotation Xrotation Yrotation
                End Site
                {
                  OFFSET 0 0 0
                }
              }
            }
          }
        }
      }
    }
  }
}
MOTION
Frames: 9
Frame Time: 0.041666666666666664
0.0000 0.0000 0.0000 64.7346 -73.4450 66.3404 -166.7300 -7.7199 99.3512 -29.2360 21.0221 0.0410 83.3172 11.5886 4.3179 48.9722 1.2040 -6.0994 -178.2150 51.6361 89.3963 -82.8678 6.2596 -1.7324 88.6186 -13.2088 -0.8185 6.9030 -1.6991 4.9762 -2.4026 7.7528 -90.6518 11.3590 -5.0847 -0.7882 -0.3020 -5.1145 -0.5631 -22.9040 -4.6123 -2.2830 -2.8914 -4.6123 -2.2830 96.5019 -13.6574 -97.7972 61.1879 -15.9294 50.5171 -40.2401 -9.8725 -68.6437 -24.1861 2.2637 -22.6845 -85.4110 -29.1390 81.9438 -8.5971 -4.8891 -58.6930 65.4117 -24.4876 -97.4265 18.5092 -0.3434 -5.7422 31.9323 1.9147 -10.0356 -11.9568 5.4731 6.4210 
0.0000 0.0000 0.0000 67.1533 -77.4457 68.3295 -167.2420 -15.6814 98.4530 -23.4565 19.8108 0.9987 64.2176 2.6840 5.4974 57.8872 1.6100 -10.6400 -177.1870 49.8593 89.7929 -70.3830 2.7361 -2.5204 82.9302 -11.0390 -1.9247 9.8617 -1.4333 4.4855 -2.5638 7.9106 -90.7622 11.0393 -5.4570 -0.9928 -0.6203 -5.4954 -0.7509 -23.2306 -4.9058 -2.5905 -3.2180 -4.9058 -2.5905 95.7814 -12.6079 -100.1750 59.0876 -14.9051 53.4162 -38.7049 -9.1147 -68.1289 -22.3167 2.1145 -23.0380 -85.2182 -27.9763 82.0604 -9.4462 -9.6118 -55.4899 60.5326 -24.8640 -100.6770 24.0879 -0.2286 -4.8995 34.4615 4.2769 -8.6811 -16.1978 7.0266 7.1506 
0.0000 0.0000 0.0000 58.3009 -79.6992 61.8623 -168.0010 -18.5770 99.1161 -21.9888 18.7853 3.4253 52.3931 -3.1126 2.7617 42.0235 1.8578 -7.2678 -178.3120 47.9058 93.5392 -55.1549 -3.5746 -2.2909 75.9187 -8.6534 -3.9578 13.2044 -1.9635 5.4212 -2.5115 7.8783 -91.2387 11.0756 -5.5738 -1.9269 -0.5845 -5.6532 -1.6790 -23.1822 -4.7369 -3.5155 -3.1695 -4.7368 -3.5155 95.3422 -11.0599 -102.0780 57.7600 -13.1295 54.9926 -36.1716 -8.3525 -68.4721 -22.1595 2.5501 -25.0160 -84.6277 -27.2623 83.0862 -8.7341 -10.3520 -54.3938 59.8749 -25.0805 -100.9550 20.1901 -0.4166 -6.3330 36.4105 6.2938 -7.0266 -19.3392 8.0818 7.4264 
0.0000 0.0000 0.0000 51.7971 -80.6254 56.1644 -169.6360 -20.0353 97.8912 -25.1256 20.1208 5.5876 52.8293 -3.2459 3.5868 24.8137 3.0275 -4.4406 -179.6830 44.8294 94.8743 -40.3379 -11.2373 -1.5892 72.9679 -7.2660 -2.8324 12.2793 -2.3258 6.1006 -2.4966 7.8016 -91.5365 11.2110 -5.6830 -2.5002 -0.4495 -5.7875 -2.2470 -23.0380 -4.6691 -4.0944 -3.0254 -4.6691 -4.0944 94.4806 -10.2001 -104.9770 56.5151 -10.1820 56.3882 -35.1326 -8.6151 -69.6833 -24.9714 3.3335 -26.4726 -84.6925 -27.5952 83.0287 -6.1057 -8.1542 -52.9484 48.7391 -22.4301 -102.9340 13.3945 -2.6088 -22.5339 35.5022 7.8465 -5.6477 -20.1429 8.7975 7.7137 
0.0000 0.0000 0.0000 47.5959 -81.4118 51.2043 -170.3670 -21.2776 96.6009 -30.0722 21.2227 5.1513 60.8350 0.6499 5.7419 14.0700 5.2529 -5.7997 179.9450 42.0104 95.0576 -28.6429 -17.8488 -1.3587 71.7257 -6.6603 -3.3572 11.9569 -3.7026 8.6586 -2.3858 7.6835 -91.5016 11.4510 -5.4479 -2.4386 -0.2104 -5.5499 -2.1960 -22.7937 -4.4633 -3.9647 -2.7810 -4.4633 -3.9647 93.6830 -12.2846 -106.1220 53.1243 -7.6496 55.6071 -31.5164 -8.8459 -70.2530 -22.5460 2.9279 -26.0389 -84.7350 -27.5211 82.9266 -5.2708 -2.1277 -52.4591 50.5227 -21.4909 -99.4772 15.3986 -2.6821 -20.8360 32.7478 7.7359 -6.8186 -18.3397 8.8750 9.9074 
0.0000 0.0000 0.0000 51.5989 -82.6061 53.6848 -170.3900 -21.3804 95.8901 -37.3174 19.6597 3.6288 63.5222 2.1894 5.0443 17.6683 5.6165 -7.0097 178.7150 39.4089 95.4031 -23.9930 -19.8656 -0.7894 70.8385 -6.1635 -4.4200 12.8196 -3.8180 8.9200 -2.2837 7.6925 -91.3480 11.4431 -5.1731 -2.1603 -0.2190 -5.2631 -1.9301 -22.8008 -4.2848 -3.6167 -2.7882 -4.2848 -3.6167 93.1652 -15.4938 -105.8730 49.0055 -5.1966 52.3293 -30.4990 -9.5597 -70.7512 -23.5802 2.9288 -24.9125 -85.2747 -30.2615 82.4569 -3.4404 4.0336 -51.3555 58.5686 -21.3874 -95.2657 23.4199 -0.7884 -7.1686 30.8058 7.5646 -6.3446 -17.4213 8.5429 9.5604 
0.0000 0.0000 0.0000 64.3460 -83.8180 64.8837 -170.4500 -19.2209 95.3344 -48.6038 15.9693 2.7684 58.4294 -0.0814 3.5904 29.1383 3.7292 -6.5061 177.3980 38.0484 95.8364 -27.2370 -17.4561 -0.3079 68.6324 -4.8825 -4.7324 15.2962 -0.9132 3.3166 -2.2218 7.8112 -91.1260 11.2179 -4.9455 -1.7551 -0.4445 -5.0180 -1.5353 -23.0281 -4.1893 -3.1620 -3.0155 -4.1893 -3.1620 92.2472 -19.9610 -106.0510 43.9343 -2.3927 47.3213 -33.3141 -12.4085 -71.7592 -27.8535 3.5789 -25.3540 -85.7767 -34.5893 82.4302 -0.7033 11.0244 -49.1758 61.9430 -20.6773 -92.0206 21.3024 -0.3862 -5.8032 30.6777 7.2717 -5.7289 -17.9067 8.1293 8.3763 
0.0000 0.0000 0.0000 80.5900 -84.7553 81.1096 -168.6930 -14.9861 97.1776 -61.1841 14.4494 1.8528 55.1272 -2.0158 8.0624 34.8529 2.9718 -6.5021 176.2150 37.5968 96.8892 -34.8281 -18.5608 0.3742 60.9018 -0.6647 -4.8476 14.1766 -1.8607 5.1754 -2.0299 7.9178 -91.0525 11.0080 -4.5286 -1.6613 -0.6559 -4.5973 -1.4600 -23.2307 -3.8199 -2.9468 -3.2180 -3.8199 -2.9468 91.4597 -24.2407 -106.0100 39.3469 1.5949 41.4996 -34.8862 -15.2352 -72.9888 -29.6498 3.4104 -23.7914 -86.5965 -39.2559 81.9356 0.4554 18.1691 -45.7210 62.4878 -19.4923 -89.4419 18.3755 -0.7373 -7.8686 29.0053 6.6399 -5.6349 -16.8342 7.5248 8.1467 
0.0000 0.0000 0.0000 95.7544 -85.1766 96.5864 -167.4660 -9.4906 99.5165 -73.8608 7.8718 1.7438 60.1572 0.5741 6.4787 31.3165 3.0489 -5.8405 174.6650 37.8258 98.3629 -47.0762 -19.6462 1.4648 70.7460 -5.4211 -5.9589 0.9813 -2.0327 5.5215 -1.7995 7.9510 -91.0936 10.9409 -4.0886 -1.7884 -0.7246 -4.1634 -1.6064 -23.2875 -3.3622 -2.9351 -3.2748 -3.3622 -2.9352 90.4823 -26.9241 -106.9920 36.0112 7.2573 35.4450 -34.1315 -16.6342 -73.4600 -32.0123 3.5532 -22.8248 -87.1013 -45.4868 82.2884 1.1073 23.5188 -40.8683 64.9792 -17.4320 -86.9436 21.2770 0.2188 -2.8926 25.7649 6.9229 -2.1980 -13.5448 6.8982 5.5461 
